<?xml version="1.0"?>
 <svg version="1.1" viewBox="0.0 0.0 960.0 720.0" fill="none" stroke="none" stroke-linecap="square" stroke-miterlimit="10" xmlns="http://www.w3.org/2000/svg" xmlns:xlink="http://www.w3.org/1999/xlink" width="960.0" height="720.0"><clipPath id="p.0"><path d="m0 0l960.0 0l0 720.0l-960.0 0l0 -720.0z" clip-rule="nonzero"></path></clipPath><g clip-path="url(#p.0)"><path fill="#000000" fill-opacity="0.0" d="m0 0l960.0 0l0 720.0l-960.0 0z" fill-rule="evenodd"></path><path fill="#000000" fill-opacity="0.0" d="m199.55118 280.44882l-165.38582 0" fill-rule="evenodd"></path><path stroke="#000000" stroke-width="4.0" stroke-linejoin="round" stroke-linecap="butt" d="m175.55118 280.44882l-141.38582 0" fill-rule="evenodd"></path><path fill="#000000" stroke="#000000" stroke-width="4.0" stroke-linecap="butt" d="m175.55118 287.05576l18.15239 -6.6069336l-18.15239 -6.6069336z" fill-rule="evenodd"></path><path fill="#000000" fill-opacity="0.0" d="m199.55118 347.68503l-165.38582 0" fill-rule="evenodd"></path><path stroke="#000000" stroke-width="4.0" stroke-linejoin="round" stroke-linecap="butt" d="m199.55118 347.68503l-141.38582 0" fill-rule="evenodd"></path><path fill="#000000" stroke="#000000" stroke-width="4.0" stroke-linecap="butt" d="m58.16535 341.0781l-18.15239 6.6069336l18.15239 6.6069336z" fill-rule="evenodd"></path><path fill="#ffffff" d="m216.62993 251.68504l131.2441 0l0 131.2441l-131.2441 0z" fill-rule="evenodd"></path><path stroke="#000000" stroke-width="1.0" stroke-linejoin="round" stroke-linecap="butt" d="m216.62993 251.68504l131.2441 0l0 131.2441l-131.2441 0z" fill-rule="evenodd"></path><path fill="#ffffff" d="m232.62993 267.68503l131.2441 0l0 131.24411l-131.2441 0z" fill-rule="evenodd"></path><path stroke="#000000" stroke-width="1.0" stroke-linejoin="round" stroke-linecap="butt" d="m232.62993 267.68503l131.2441 0l0 131.24411l-131.2441 0z" fill-rule="evenodd"></path><path fill="#ffffff" d="m248.62993 283.68503l131.2441 0l0 131.24411l-131.2441 0z" fill-rule="evenodd"></path><path stroke="#000000" stroke-width="1.0" stroke-linejoin="round" stroke-linecap="butt" d="m248.62993 283.68503l131.2441 0l0 131.24411l-131.2441 0z" fill-rule="evenodd"></path><path fill="#000000" d="m279.9263 342.90707l0 -19.328125l14.328125 0l0 3.265625l-10.4375 0l0 4.296875l9.703125 0l0 3.25l-9.703125 0l0 5.265625l10.8125 0l0 3.25l-14.703125 0zm21.59201 0l-5.640625 -14.0l3.890625 0l2.640625 7.140625l0.765625 2.390625q0.296875 -0.90625 0.375 -1.203125q0.1875 -0.59375 0.40625 -1.1875l2.65625 -7.140625l3.8125 0l-5.5625 14.0l-3.34375 0zm19.090576 -4.453125l3.6875 0.609375q-0.703125 2.03125 -2.25 3.09375q-1.53125 1.0625 -3.84375 1.0625q-3.640625 0 -5.40625 -2.375q-1.375 -1.921875 -1.375 -4.828125q0 -3.484375 1.8125 -5.453125q1.828125 -1.96875 4.609375 -1.96875q3.125 0 4.921875 2.0625q1.8125 2.0625 1.734375 6.3125l-9.28125 0q0.03125 1.65625 0.890625 2.578125q0.859375 0.90625 2.140625 0.90625q0.875 0 1.46875 -0.46875q0.59375 -0.484375 0.890625 -1.53125zm0.203125 -3.75q-0.03125 -1.609375 -0.828125 -2.4375q-0.78125 -0.84375 -1.921875 -0.84375q-1.21875 0 -2.0 0.890625q-0.796875 0.875 -0.78125 2.390625l5.53125 0zm19.246796 8.203125l-3.703125 0l0 -7.140625q0 -2.265625 -0.234375 -2.9375q-0.234375 -0.671875 -0.78125 -1.03125q-0.53125 -0.375 -1.28125 -0.375q-0.953125 0 -1.71875 0.53125q-0.765625 0.53125 -1.0625 1.40625q-0.28125 0.859375 -0.28125 3.203125l0 6.34375l-3.703125 0l0 -14.0l3.453125 0l0 2.0625q1.828125 -2.375 4.609375 -2.375q1.21875 0 2.234375 0.4375q1.015625 0.4375 1.53125 1.125q0.53125 0.6875 0.734375 1.5625q0.203125 0.859375 0.203125 2.484375l0 8.703125zm9.970215 -14.0l0 2.953125l-2.53125 0l0 5.640625q0 1.71875 0.0625 2.0q0.078125 0.28125 0.328125 0.46875q0.265625 0.1875 0.640625 0.1875q0.515625 0 1.484375 -0.359375l0.3125 2.875q-1.28125 0.546875 -2.921875 0.546875q-1.0 0 -1.8125 -0.328125q-0.796875 -0.34375 -1.171875 -0.875q-0.375 -0.53125 -0.515625 -1.4375q-0.125 -0.65625 -0.125 -2.609375l0 -6.109375l-1.703125 0l0 -2.953125l1.703125 0l0 -2.78125l3.71875 -2.15625l0 4.9375l2.53125 0z" fill-rule="nonzero"></path><path fill="#000000" d="m290.2929 372.45395q1.4375 1.03125 3.125 1.640625l-1.4375 2.75q-0.875 -0.265625 -1.71875 -0.71875q-0.1875 -0.09375 -2.59375 -1.71875q-1.90625 0.828125 -4.21875 0.828125q-4.453125 0 -6.984375 -2.625q-2.515625 -2.625 -2.515625 -7.359375q0 -4.734375 2.53125 -7.359375q2.53125 -2.640625 6.875 -2.640625q4.296875 0 6.8125 2.640625q2.515625 2.625 2.515625 7.359375q0 2.5 -0.703125 4.390625q-0.515625 1.453125 -1.6875 2.8125zm-3.125 -2.203125q0.75 -0.875 1.125 -2.125q0.375 -1.265625 0.375 -2.875q0 -3.359375 -1.484375 -5.015625q-1.46875 -1.65625 -3.859375 -1.65625q-2.390625 0 -3.875 1.671875q-1.484375 1.65625 -1.484375 5.0q0 3.375 1.484375 5.0625q1.484375 1.6875 3.75 1.6875q0.84375 0 1.609375 -0.28125q-1.1875 -0.78125 -2.421875 -1.21875l1.09375 -2.21875q1.921875 0.65625 3.6875 1.96875zm17.499725 4.65625l0 -2.09375q-0.765625 1.125 -2.015625 1.765625q-1.25 0.640625 -2.625 0.640625q-1.40625 0 -2.53125 -0.609375q-1.125 -0.625 -1.625 -1.75q-0.5 -1.125 -0.5 -3.09375l0 -8.859375l3.703125 0l0 6.4375q0 2.953125 0.203125 3.625q0.203125 0.65625 0.734375 1.046875q0.546875 0.390625 1.390625 0.390625q0.9375 0 1.6875 -0.515625q0.765625 -0.53125 1.03125 -1.296875q0.28125 -0.78125 0.28125 -3.78125l0 -5.90625l3.703125 0l0 14.0l-3.4375 0zm15.173309 -4.453125l3.6875 0.609375q-0.703125 2.03125 -2.25 3.09375q-1.53125 1.0625 -3.84375 1.0625q-3.640625 0 -5.40625 -2.375q-1.375 -1.921875 -1.375 -4.828125q0 -3.484375 1.8125 -5.453125q1.828125 -1.96875 4.609375 -1.96875q3.125 0 4.921875 2.0625q1.8125 2.0625 1.734375 6.3125l-9.28125 0q0.03125 1.65625 0.890625 2.578125q0.859375 0.90625 2.140625 0.90625q0.875 0 1.46875 -0.46875q0.59375 -0.484375 0.890625 -1.53125zm0.203125 -3.75q-0.03125 -1.609375 -0.828125 -2.4375q-0.78125 -0.84375 -1.921875 -0.84375q-1.21875 0 -2.0 0.890625q-0.796875 0.875 -0.78125 2.390625l5.53125 0zm15.731201 8.203125l0 -2.09375q-0.765625 1.125 -2.015625 1.765625q-1.25 0.640625 -2.625 0.640625q-1.40625 0 -2.53125 -0.609375q-1.125 -0.625 -1.625 -1.75q-0.5 -1.125 -0.5 -3.09375l0 -8.859375l3.703125 0l0 6.4375q0 2.953125 0.203125 3.625q0.203125 0.65625 0.734375 1.046875q0.546875 0.390625 1.390625 0.390625q0.9375 0 1.6875 -0.515625q0.765625 -0.53125 1.03125 -1.296875q0.28125 -0.78125 0.28125 -3.78125l0 -5.90625l3.703125 0l0 14.0l-3.4375 0zm15.173309 -4.453125l3.6875 0.609375q-0.703125 2.03125 -2.25 3.09375q-1.53125 1.0625 -3.84375 1.0625q-3.640625 0 -5.40625 -2.375q-1.375 -1.921875 -1.375 -4.828125q0 -3.484375 1.8125 -5.453125q1.828125 -1.96875 4.609375 -1.96875q3.125 0 4.921875 2.0625q1.8125 2.0625 1.734375 6.3125l-9.28125 0q0.03125 1.65625 0.890625 2.578125q0.859375 0.90625 2.140625 0.90625q0.875 0 1.46875 -0.46875q0.59375 -0.484375 0.890625 -1.53125zm0.203125 -3.75q-0.03125 -1.609375 -0.828125 -2.4375q-0.78125 -0.84375 -1.921875 -0.84375q-1.21875 0 -2.0 0.890625q-0.796875 0.875 -0.78125 2.390625l5.53125 0z" fill-rule="nonzero"></path><path fill="#ffffff" d="m700.04724 251.68504l131.24408 0l0 131.2441l-131.24408 0z" fill-rule="evenodd"></path><path stroke="#000000" stroke-width="1.0" stroke-linejoin="round" stroke-linecap="butt" d="m700.04724 251.68504l131.24408 0l0 131.2441l-131.24408 0z" fill-rule="evenodd"></path><path fill="#ffffff" d="m716.04724 267.68503l131.24408 0l0 131.24411l-131.24408 0z" fill-rule="evenodd"></path><path stroke="#000000" stroke-width="1.0" stroke-linejoin="round" stroke-linecap="butt" d="m716.04724 267.68503l131.24408 0l0 131.24411l-131.24408 0z" fill-rule="evenodd"></path><path fill="#ffffff" d="m732.04724 283.68503l131.24408 0l0 131.24411l-131.24408 0z" fill-rule="evenodd"></path><path stroke="#000000" stroke-width="1.0" stroke-linejoin="round" stroke-linecap="butt" d="m732.04724 283.68503l131.24408 0l0 131.24411l-131.24408 0z" fill-rule="evenodd"></path><path fill="#000000" d="m747.0857 342.90707l0 -19.328125l3.796875 0l7.921875 12.90625l0 -12.90625l3.625 0l0 19.328125l-3.921875 0l-7.796875 -12.609375l0 12.609375l-3.625 0zm27.29712 -4.453125l3.6875 0.609375q-0.703125 2.03125 -2.25 3.09375q-1.53125 1.0625 -3.84375 1.0625q-3.640625 0 -5.40625 -2.375q-1.375 -1.921875 -1.375 -4.828125q0 -3.484375 1.8125 -5.453125q1.828125 -1.96875 4.609375 -1.96875q3.125 0 4.921875 2.0625q1.8125 2.0625 1.734375 6.3125l-9.28125 0q0.03125 1.65625 0.890625 2.578125q0.859375 0.90625 2.140625 0.90625q0.875 0 1.46875 -0.46875q0.59375 -0.484375 0.890625 -1.53125zm0.203125 -3.75q-0.03125 -1.609375 -0.828125 -2.4375q-0.78125 -0.84375 -1.921875 -0.84375q-1.21875 0 -2.0 0.890625q-0.796875 0.875 -0.78125 2.390625l5.53125 0zm12.934326 -5.796875l0 2.953125l-2.53125 0l0 5.640625q0 1.71875 0.0625 2.0q0.078125 0.28125 0.328125 0.46875q0.265625 0.1875 0.640625 0.1875q0.515625 0 1.484375 -0.359375l0.3125 2.875q-1.28125 0.546875 -2.921875 0.546875q-1.0 0 -1.8125 -0.328125q-0.796875 -0.34375 -1.171875 -0.875q-0.375 -0.53125 -0.515625 -1.4375q-0.125 -0.65625 -0.125 -2.609375l0 -6.109375l-1.703125 0l0 -2.953125l1.703125 0l0 -2.78125l3.71875 -2.15625l0 4.9375l2.53125 0zm5.06427 14.0l-4.421875 -14.0l3.59375 0l2.625 9.171875l2.40625 -9.171875l3.578125 0l2.328125 9.171875l2.6875 -9.171875l3.640625 0l-4.484375 14.0l-3.5625 0l-2.421875 -9.0l-2.375 9.0l-3.59375 0zm17.26532 -7.203125q0 -1.84375 0.90625 -3.5625q0.921875 -1.734375 2.578125 -2.640625q1.671875 -0.90625 3.734375 -0.90625q3.171875 0 5.203125 2.0625q2.03125 2.0625 2.03125 5.203125q0 3.1875 -2.046875 5.28125q-2.046875 2.078125 -5.171875 2.078125q-1.921875 0 -3.671875 -0.859375q-1.734375 -0.875 -2.65625 -2.546875q-0.90625 -1.6875 -0.90625 -4.109375zm3.796875 0.203125q0 2.078125 0.984375 3.1875q1.0 1.109375 2.453125 1.109375q1.4375 0 2.421875 -1.109375q0.984375 -1.109375 0.984375 -3.21875q0 -2.046875 -0.984375 -3.15625q-0.984375 -1.109375 -2.421875 -1.109375q-1.453125 0 -2.453125 1.109375q-0.984375 1.109375 -0.984375 3.1875zm16.89209 7.0l-3.703125 0l0 -14.0l3.4375 0l0 1.984375q0.890625 -1.40625 1.59375 -1.84375q0.703125 -0.453125 1.59375 -0.453125q1.265625 0 2.4375 0.6875l-1.140625 3.234375q-0.9375 -0.609375 -1.734375 -0.609375q-0.78125 0 -1.328125 0.4375q-0.53125 0.421875 -0.84375 1.546875q-0.3125 1.125 -0.3125 4.6875l0 4.328125zm6.70166 0l0 -19.328125l3.703125 0l0 10.25l4.328125 -4.921875l4.5625 0l-4.78125 5.109375l5.125 8.890625l-3.984375 0l-3.53125 -6.28125l-1.71875 1.796875l0 4.484375l-3.703125 0z" fill-rule="nonzero"></path><path fill="#000000" d="m787.55383 367.7977l3.78125 1.203125q-0.859375 3.15625 -2.890625 4.703125q-2.015625 1.53125 -5.140625 1.53125q-3.84375 0 -6.328125 -2.625q-2.46875 -2.640625 -2.46875 -7.203125q0 -4.8125 2.484375 -7.484375q2.5 -2.671875 6.5625 -2.671875q3.546875 0 5.75 2.09375q1.328125 1.234375 1.984375 3.5625l-3.859375 0.921875q-0.34375 -1.5 -1.4375 -2.375q-1.078125 -0.875 -2.640625 -0.875q-2.15625 0 -3.5 1.546875q-1.328125 1.546875 -1.328125 5.0q0 3.65625 1.3125 5.21875q1.328125 1.5625 3.4375 1.5625q1.5625 0 2.671875 -0.984375q1.125 -1.0 1.609375 -3.125zm9.625305 -2.625l-3.359375 -0.609375q0.5625 -2.015625 1.953125 -2.984375q1.390625 -0.984375 4.109375 -0.984375q2.484375 0 3.6875 0.59375q1.21875 0.578125 1.703125 1.484375q0.5 0.890625 0.5 3.3125l-0.03125 4.328125q0 1.84375 0.171875 2.71875q0.1875 0.875 0.671875 1.875l-3.671875 0q-0.140625 -0.375 -0.359375 -1.09375q-0.078125 -0.328125 -0.125 -0.4375q-0.953125 0.921875 -2.03125 1.390625q-1.078125 0.453125 -2.3125 0.453125q-2.15625 0 -3.40625 -1.171875q-1.234375 -1.171875 -1.234375 -2.96875q0 -1.1875 0.5625 -2.109375q0.5625 -0.9375 1.578125 -1.421875q1.03125 -0.5 2.953125 -0.875q2.59375 -0.484375 3.59375 -0.90625l0 -0.359375q0 -1.078125 -0.53125 -1.53125q-0.515625 -0.453125 -1.984375 -0.453125q-0.984375 0 -1.546875 0.390625q-0.546875 0.390625 -0.890625 1.359375zm4.953125 3.015625q-0.703125 0.234375 -2.25 0.5625q-1.546875 0.328125 -2.015625 0.640625q-0.71875 0.515625 -0.71875 1.3125q0 0.78125 0.578125 1.34375q0.578125 0.5625 1.46875 0.5625q1.0 0 1.921875 -0.65625q0.671875 -0.5 0.875 -1.21875q0.140625 -0.484375 0.140625 -1.8125l0 -0.734375zm7.106201 6.71875l0 -19.328125l3.703125 0l0 19.328125l-3.703125 0zm7.405945 0l0 -19.328125l3.703125 0l0 19.328125l-3.703125 0z" fill-rule="nonzero"></path><path fill="#000000" fill-opacity="0.0" d="m449.29922 267.68503l181.32285 0l0 131.24411l-181.32285 0z" fill-rule="evenodd"></path><path fill="#000000" d="m488.404 315.08502l0 -28.640625l21.234375 0l0 4.84375l-15.453125 0l0 6.359375l14.375 0l0 4.8125l-14.375 0l0 7.796875l16.0 0l0 4.828125l-21.78125 0zm32.351562 0l-8.359375 -20.75l5.765625 0l3.90625 10.59375l1.125 3.53125q0.453125 -1.34375 0.5625 -1.78125q0.28125 -0.875 0.59375 -1.75l3.9375 -10.59375l5.65625 0l-8.25 20.75l-4.9375 0zm28.558594 -6.609375l5.46875 0.921875q-1.0625 3.015625 -3.34375 4.59375q-2.265625 1.5625 -5.6875 1.5625q-5.40625 0 -8.0 -3.53125q-2.0625 -2.84375 -2.0625 -7.15625q0 -5.15625 2.6875 -8.078125q2.703125 -2.921875 6.828125 -2.921875q4.625 0 7.296875 3.0625q2.6875 3.0625 2.5625 9.359375l-13.75 0q0.0625 2.453125 1.328125 3.8125q1.28125 1.34375 3.171875 1.34375q1.28125 0 2.15625 -0.703125q0.890625 -0.703125 1.34375 -2.265625zm0.3125 -5.546875q-0.0625 -2.375 -1.234375 -3.609375q-1.171875 -1.25 -2.859375 -1.25q-1.796875 0 -2.96875 1.3125q-1.171875 1.3125 -1.140625 3.546875l8.203125 0zm28.777344 12.15625l-5.484375 0l0 -10.59375q0 -3.359375 -0.359375 -4.34375q-0.34375 -0.984375 -1.140625 -1.53125q-0.78125 -0.546875 -1.890625 -0.546875q-1.4375 0 -2.578125 0.78125q-1.125 0.78125 -1.546875 2.078125q-0.40625 1.28125 -0.40625 4.765625l0 9.390625l-5.5 0l0 -20.75l5.109375 0l0 3.046875q2.703125 -3.515625 6.828125 -3.515625q1.8125 0 3.3125 0.65625q1.515625 0.65625 2.28125 1.671875q0.78125 1.015625 1.078125 2.3125q0.296875 1.28125 0.296875 3.6875l0 12.890625zm15.089844 -20.75l0 4.375l-3.75 0l0 8.359375q0 2.546875 0.09375 2.96875q0.109375 0.421875 0.484375 0.703125q0.390625 0.265625 0.9375 0.265625q0.765625 0 2.203125 -0.53125l0.46875 4.25q-1.90625 0.828125 -4.328125 0.828125q-1.484375 0 -2.6875 -0.5q-1.1875 -0.5 -1.75 -1.28125q-0.546875 -0.796875 -0.765625 -2.140625q-0.171875 -0.96875 -0.171875 -3.875l0 -9.046875l-2.515625 0l0 -4.375l2.515625 0l0 -4.109375l5.515625 -3.203125l0 7.3125l3.75 0z" fill-rule="nonzero"></path><path fill="#000000" d="m494.15594 363.08502l0 -28.40625l5.78125 0l0 23.578125l14.375 0l0 4.828125l-20.15625 0zm22.980469 -10.671875q0 -2.734375 1.34375 -5.28125q1.34375 -2.5625 3.8125 -3.90625q2.46875 -1.359375 5.515625 -1.359375q4.71875 0 7.71875 3.0625q3.015625 3.0625 3.015625 7.71875q0 4.71875 -3.046875 7.8125q-3.03125 3.09375 -7.640625 3.09375q-2.859375 0 -5.453125 -1.28125q-2.578125 -1.296875 -3.921875 -3.78125q-1.34375 -2.5 -1.34375 -6.078125zm5.625 0.296875q0 3.09375 1.453125 4.734375q1.46875 1.640625 3.625 1.640625q2.140625 0 3.59375 -1.640625q1.453125 -1.640625 1.453125 -4.765625q0 -3.046875 -1.453125 -4.6875q-1.453125 -1.640625 -3.59375 -1.640625q-2.15625 0 -3.625 1.640625q-1.453125 1.640625 -1.453125 4.71875zm18.808594 -0.296875q0 -2.734375 1.34375 -5.28125q1.34375 -2.5625 3.8125 -3.90625q2.46875 -1.359375 5.515625 -1.359375q4.71875 0 7.71875 3.0625q3.015625 3.0625 3.015625 7.71875q0 4.71875 -3.046875 7.8125q-3.03125 3.09375 -7.640625 3.09375q-2.859375 0 -5.453125 -1.28125q-2.578125 -1.296875 -3.921875 -3.78125q-1.34375 -2.5 -1.34375 -6.078125zm5.625 0.296875q0 3.09375 1.453125 4.734375q1.46875 1.640625 3.625 1.640625q2.140625 0 3.59375 -1.640625q1.453125 -1.640625 1.453125 -4.765625q0 -3.046875 -1.453125 -4.6875q-1.453125 -1.640625 -3.59375 -1.640625q-2.15625 0 -3.625 1.640625q-1.453125 1.640625 -1.453125 4.71875zm19.917969 -10.375l5.109375 0l0 3.046875q1.0 -1.5625 2.703125 -2.53125q1.703125 -0.984375 3.765625 -0.984375q3.609375 0 6.125 2.84375q2.53125 2.828125 2.53125 7.890625q0 5.1875 -2.546875 8.078125q-2.53125 2.875 -6.140625 2.875q-1.71875 0 -3.125 -0.6875q-1.390625 -0.6875 -2.9375 -2.34375l0 10.453125l-5.484375 0l0 -28.640625zm5.421875 10.03125q0 3.484375 1.390625 5.15625q1.390625 1.671875 3.375 1.671875q1.921875 0 3.1875 -1.53125q1.265625 -1.53125 1.265625 -5.03125q0 -3.265625 -1.3125 -4.84375q-1.296875 -1.578125 -3.234375 -1.578125q-2.015625 0 -3.34375 1.5625q-1.328125 1.546875 -1.328125 4.59375z" fill-rule="nonzero"></path><path fill="#ffffff" d="m659.60364 329.88452l-44.469177 -40.448822l20.224426 0l0 0c-14.433289 -71.43561 -64.85474 -121.346466 -122.58789 -121.346466l40.44879 0l0 0c57.733154 0 108.15466 49.91086 122.58795 121.346466l20.224365 0z" fill-rule="evenodd"></path><path fill="#cbcbcb" d="m532.99536 170.16684l0 0c-61.31955 12.680298 -106.38385 80.33682 -106.38385 159.71768l-40.448822 0l0 0c0 -47.426636 16.283295 -92.46509 44.544037 -123.20581c28.260773 -30.740723 65.65286 -44.087814 102.288635 -36.51187z" fill-rule="evenodd"></path><path fill="#000000" fill-opacity="0.0" d="m532.99536 170.16684l0 0c-61.31955 12.680298 -106.38385 80.33682 -106.38385 159.71768l-40.448822 0l0 0c0 -89.35707 56.68448 -161.79529 126.60831 -161.79529l40.44879 0l0 0c57.733154 0 108.15466 49.91086 122.58795 121.346466l20.224365 0l-36.428467 40.448822l-44.469177 -40.448822l20.224426 0l0 0c-14.433289 -71.43561 -64.85474 -121.346466 -122.58789 -121.346466" fill-rule="evenodd"></path><path stroke="#000000" stroke-width="1.0" stroke-linejoin="round" stroke-linecap="butt" d="m532.99536 170.16684l0 0c-61.31955 12.680298 -106.38385 80.33682 -106.38385 159.71768l-40.448822 0l0 0c0 -89.35707 56.68448 -161.79529 126.60831 -161.79529l40.44879 0l0 0c57.733154 0 108.15466 49.91086 122.58795 121.346466l20.224365 0l-36.428467 40.448822l-44.469177 -40.448822l20.224426 0l0 0c-14.433289 -71.43561 -64.85474 -121.346466 -122.58789 -121.346466" fill-rule="evenodd"></path><path fill="#ffffff" d="m420.3228 338.69553l44.469147 40.448822l-20.224396 0l0 0c14.433289 71.43561 64.85477 121.346466 122.58789 121.346466l-40.44879 0l0 0c-57.733154 0 -108.15463 -49.91086 -122.58792 -121.346466l-20.224426 0z" fill-rule="evenodd"></path><path fill="#cbcbcb" d="m546.9311 498.4132l0 0c61.31958 -12.680298 106.38385 -80.33682 106.38385 -159.71768l40.44879 0l0 0c0 47.426636 -16.283264 92.46509 -44.544006 123.20581c-28.260742 30.740723 -65.65283 44.0878 -102.288635 36.51187z" fill-rule="evenodd"></path><path fill="#000000" fill-opacity="0.0" d="m546.9311 498.4132l0 0c61.31958 -12.680298 106.38385 -80.33682 106.38385 -159.71768l40.44879 0l0 0c0 89.357086 -56.68445 161.79529 -126.60828 161.79529l-40.44879 0l0 0c-57.733154 0 -108.15463 -49.91086 -122.58792 -121.346466l-20.224426 0l36.428497 -40.448822l44.469147 40.448822l-20.224396 0l0 0c14.433289 71.43561 64.85477 121.346466 122.58789 121.346466" fill-rule="evenodd"></path><path stroke="#000000" stroke-width="1.0" stroke-linejoin="round" stroke-linecap="butt" d="m546.9311 498.4132l0 0c61.31958 -12.680298 106.38385 -80.33682 106.38385 -159.71768l40.44879 0l0 0c0 89.357086 -56.68445 161.79529 -126.60828 161.79529l-40.44879 0l0 0c-57.733154 0 -108.15463 -49.91086 -122.58792 -121.346466l-20.224426 0l36.428497 -40.448822l44.469147 40.448822l-20.224396 0l0 0c14.433289 71.43561 64.85477 121.346466 122.58789 121.346466" fill-rule="evenodd"></path><path fill="#000000" fill-opacity="0.0" d="m615.0216 172.26833l0 0c32.343872 -13.711914 68.76361 -14.128128 101.24725 -1.1571045c32.483643 12.971008 58.37036 38.266754 71.96533 70.32245l-121.95276 51.70079z" fill-rule="evenodd"></path><path fill="#000000" fill-opacity="0.0" d="m615.0216 172.26833l0 0c32.343872 -13.711914 68.76361 -14.128128 101.24725 -1.1571045c32.483643 12.971008 58.37036 38.266754 71.96533 70.32245" fill-rule="evenodd"></path><path stroke="#000000" stroke-width="4.0" stroke-linejoin="round" stroke-linecap="butt" stroke-dasharray="16.0,12.0" d="m615.02155 172.26831l0 0c32.343933 -13.711884 68.76367 -14.128113 101.247314 -1.1571045c16.241821 6.4855194 30.834412 16.0522 43.06598 28.004486c6.1157227 5.9761353 11.641113 12.54866 16.487427 19.63063c1.2115479 1.7705078 2.3806763 3.5728455 3.5059204 5.405655c0.140625 0.22911072 0.2805786 0.45869446 0.41986084 0.68873596l0.32904053 0.54730225" fill-rule="evenodd"></path><path fill="#000000" stroke="#000000" stroke-width="4.0" stroke-linecap="butt" d="m776.1343 227.39244l9.449951 8.828522l-1.56427 -12.837357z" fill-rule="evenodd"></path><path fill="#000000" fill-opacity="0.0" d="m802.9048 422.76025l0 0c-13.302551 32.515137 -38.862427 58.46219 -71.05664 72.13315c-32.194275 13.670959 -68.38568 13.945953 -100.61261 0.76449585l50.15747 -122.59842z" fill-rule="evenodd"></path><path fill="#000000" fill-opacity="0.0" d="m802.9048 422.76025l0 0c-13.302551 32.515137 -38.862427 58.46219 -71.05664 72.13315c-32.194275 13.670959 -68.38568 13.945953 -100.61261 0.76449585" fill-rule="evenodd"></path><path stroke="#000000" stroke-width="4.0" stroke-linejoin="round" stroke-linecap="butt" stroke-dasharray="16.0,12.0" d="m802.90485 422.76025l0 0c-13.302673 32.515137 -38.862427 58.46219 -71.05676 72.13315c-16.097107 6.8355103 -33.19348 10.321991 -50.294006 10.451904c-8.550232 0.064971924 -17.101501 -0.709198 -25.529419 -2.3234558c-2.1069946 -0.40356445 -4.206238 -0.85961914 -6.2958374 -1.3682251c-0.26116943 -0.063568115 -0.52227783 -0.1279602 -0.7831421 -0.19314575l-0.6185303 -0.15667725" fill-rule="evenodd"></path><path fill="#000000" stroke="#000000" stroke-width="4.0" stroke-linecap="butt" d="m649.71454 497.1039l-12.926514 0.38815308l10.151794 8.011627z" fill-rule="evenodd"></path><path fill="#000000" fill-opacity="0.0" d="m282.95938 243.2748l0 0c13.348541 -32.498413 38.9458 -58.412872 71.160706 -72.04248c32.214905 -13.629623 68.4086 -13.857925 100.618805 -0.63468933l-50.33069 122.53543z" fill-rule="evenodd"></path><path fill="#000000" fill-opacity="0.0" d="m282.95938 243.2748l0 0c13.348541 -32.498413 38.9458 -58.412872 71.160706 -72.04248c32.214905 -13.629623 68.4086 -13.857925 100.618805 -0.63468933" fill-rule="evenodd"></path><path stroke="#000000" stroke-width="4.0" stroke-linejoin="round" stroke-linecap="butt" stroke-dasharray="16.0,12.0" d="m282.95938 243.2748l0 0c13.348511 -32.49843 38.9458 -58.412872 71.160706 -72.04248c16.107452 -6.814804 33.209595 -10.279297 50.311188 -10.387161c8.550751 -0.05393982 17.10138 0.73127747 25.527466 2.35643c2.1065063 0.40629578 4.205261 0.8650665 6.2942505 1.3763733c0.2611084 0.06390381 0.5220947 0.12863159 0.78292847 0.19418335l0.61865234 0.15753174" fill-rule="evenodd"></path><path fill="#000000" stroke="#000000" stroke-width="4.0" stroke-linecap="butt" d="m436.26178 169.12778l12.926971 -0.37147522l-10.141418 -8.0247345z" fill-rule="evenodd"></path><path fill="#000000" fill-opacity="0.0" d="m457.85788 492.967l0 0c-32.08911 14.300812 -68.49512 15.383026 -101.20914 3.0085754c-32.71405 -12.37442 -59.056305 -37.191895 -73.23181 -68.99283l120.99213 -53.921234z" fill-rule="evenodd"></path><path fill="#000000" fill-opacity="0.0" d="m457.85788 492.967l0 0c-32.08911 14.300812 -68.49512 15.383026 -101.20914 3.0085754c-32.71405 -12.37442 -59.056305 -37.191895 -73.23181 -68.99283" fill-rule="evenodd"></path><path stroke="#000000" stroke-width="4.0" stroke-linejoin="round" stroke-linecap="butt" stroke-dasharray="16.0,12.0" d="m457.8579 492.96704l0 0c-32.08914 14.300812 -68.49518 15.383026 -101.20917 3.008545c-16.357025 -6.187195 -31.121094 -15.485168 -43.56784 -27.211487c-6.2233887 -5.8631287 -11.867432 -12.333374 -16.841614 -19.325378c-1.2435608 -1.7479858 -2.445221 -3.5285645 -3.6036377 -5.340454c-0.14477539 -0.22650146 -0.2889099 -0.4534607 -0.43234253 -0.6809387l-0.3383484 -0.54019165" fill-rule="evenodd"></path><path fill="#000000" stroke="#000000" stroke-width="4.0" stroke-linecap="butt" d="m295.77066 440.8012l-9.609222 -8.654877l1.7978516 12.806732z" fill-rule="evenodd"></path><path fill="#000000" fill-opacity="0.0" d="m226.34645 134.66667l143.81102 0l0 38.64566l-143.81102 0z" fill-rule="evenodd"></path><path fill="#0000ff" d="m245.77736 161.11292l3.375 -0.328125q0.296875 1.703125 1.21875 2.5q0.9375 0.796875 2.53125 0.796875q1.671875 0 2.515625 -0.703125q0.85935974 -0.71875 0.85935974 -1.671875q0 -0.609375 -0.35935974 -1.03125q-0.359375 -0.421875 -1.25 -0.75q-0.609375 -0.203125 -2.78125 -0.75q-2.78125 -0.6875 -3.90625 -1.6875q-1.59375 -1.421875 -1.59375 -3.46875q0 -1.3125 0.75 -2.453125q0.75 -1.140625 2.140625 -1.734375q1.40625 -0.59375 3.390625 -0.59375q3.234375 0 4.8593597 1.421875q1.640625 1.40625 1.71875 3.78125l-3.4687347 0.140625q-0.21875 -1.3125 -0.953125 -1.890625q-0.734375 -0.59375 -2.203125 -0.59375q-1.5 0 -2.359375 0.625q-0.546875 0.40625 -0.546875 1.0625q0 0.609375 0.515625 1.046875q0.65625 0.546875 3.1875 1.15625q2.53125 0.59375 3.7343597 1.234375q1.21875 0.640625 1.90625 1.75q0.6875 1.09375 0.6875 2.734375q0 1.46875 -0.828125 2.765625q-0.8125 1.28125 -2.3125 1.921875q-1.4999847 0.625 -3.7499847 0.625q-3.25 0 -5.0 -1.5q-1.75 -1.515625 -2.078125 -4.40625zm27.710922 -3.171875l-3.25 0.578125q-0.15625 -0.96875 -0.75 -1.453125q-0.578125 -0.5 -1.5 -0.5q-1.234375 0 -1.96875 0.859375q-0.71875 0.84375 -0.71875 2.828125q0 2.21875 0.734375 3.140625q0.75 0.90625 2.0 0.90625q0.9375 0 1.53125 -0.53125q0.609375 -0.53125 0.84375 -1.828125l3.234375 0.546875q-0.5 2.21875 -1.9375 3.359375q-1.421875 1.140625 -3.828125 1.140625q-2.71875 0 -4.34375 -1.71875q-1.625 -1.734375 -1.625 -4.78125q0 -3.078125 1.625 -4.796875q1.625 -1.71875 4.40625 -1.71875q2.28125 0 3.609375 0.984375q1.34375 0.984375 1.9375 2.984375zm5.7695312 -8.421875l0 6.328125q1.59375 -1.875 3.8125 -1.875q1.140625 0 2.046875 0.421875q0.921875 0.421875 1.375 1.078125q0.46875 0.65625 0.640625 1.453125q0.171875 0.796875 0.171875 2.484375l0 7.296875l-3.296875 0l0 -6.578125q0 -1.953125 -0.1875 -2.484375q-0.1875 -0.53125 -0.671875 -0.828125q-0.46875 -0.3125 -1.171875 -0.3125q-0.828125 0 -1.46875 0.40625q-0.640625 0.390625 -0.953125 1.1875q-0.296875 0.796875 -0.296875 2.375l0 6.234375l-3.28125 0l0 -17.1875l3.28125 0zm18.597656 13.21875l3.28125 0.5625q-0.640625 1.796875 -2.015625 2.75q-1.359375 0.9375 -3.40625 0.9375q-3.25 0 -4.796875 -2.125q-1.234375 -1.703125 -1.234375 -4.28125q0 -3.09375 1.609375 -4.84375q1.625 -1.765625 4.09375 -1.765625q2.78125 0 4.375 1.84375q1.609375 1.828125 1.546875 5.609375l-8.25 0q0.03125 1.46875 0.796875 2.28125q0.765625 0.8125 1.890625 0.8125q0.78125 0 1.296875 -0.421875q0.53125 -0.421875 0.8125 -1.359375zm0.1875 -3.328125q-0.046875 -1.421875 -0.75 -2.15625q-0.703125 -0.75 -1.703125 -0.75q-1.078125 0 -1.78125 0.78125q-0.703125 0.78125 -0.6875 2.125l4.921875 0zm17.363281 7.296875l-3.0625 0l0 -1.828125q-0.765625 1.0625 -1.796875 1.59375q-1.03125 0.515625 -2.09375 0.515625q-2.140625 0 -3.671875 -1.71875q-1.53125 -1.734375 -1.53125 -4.828125q0 -3.171875 1.484375 -4.8125q1.5 -1.65625 3.765625 -1.65625q2.09375 0 3.609375 1.734375l0 -6.1875l3.296875 0l0 17.1875zm-8.796875 -6.5q0 2.0 0.5625 2.890625q0.796875 1.28125 2.21875 1.28125q1.140625 0 1.9375 -0.953125q0.796875 -0.96875 0.796875 -2.890625q0 -2.15625 -0.78125 -3.09375q-0.765625 -0.9375 -1.96875 -0.9375q-1.171875 0 -1.96875 0.9375q-0.796875 0.921875 -0.796875 2.765625zm20.238281 6.5l0 -1.859375q-0.6875 0.984375 -1.796875 1.5625q-1.109375 0.578125 -2.328125 0.578125q-1.265625 0 -2.265625 -0.546875q-0.984375 -0.5625 -1.4375 -1.546875q-0.4375 -1.0 -0.4375 -2.765625l0 -7.875l3.296875 0l0 5.71875q0 2.625 0.171875 3.21875q0.1875 0.59375 0.65625 0.9375q0.484375 0.34375 1.234375 0.34375q0.84375 0 1.5 -0.453125q0.671875 -0.46875 0.921875 -1.15625q0.25 -0.6875 0.25 -3.359375l0 -5.25l3.28125 0l0 12.453125l-3.046875 0zm6.4570312 0l0 -17.1875l3.296875 0l0 17.1875l-3.296875 0zm13.886719 -3.96875l3.28125 0.5625q-0.640625 1.796875 -2.015625 2.75q-1.359375 0.9375 -3.40625 0.9375q-3.25 0 -4.796875 -2.125q-1.234375 -1.703125 -1.234375 -4.28125q0 -3.09375 1.609375 -4.84375q1.625 -1.765625 4.09375 -1.765625q2.78125 0 4.375 1.84375q1.609375 1.828125 1.546875 5.609375l-8.25 0q0.03125 1.46875 0.796875 2.28125q0.765625 0.8125 1.890625 0.8125q0.78125 0 1.296875 -0.421875q0.53125 -0.421875 0.8125 -1.359375zm0.1875 -3.328125q-0.046875 -1.421875 -0.75 -2.15625q-0.703125 -0.75 -1.703125 -0.75q-1.078125 0 -1.78125 0.78125q-0.703125 0.78125 -0.6875 2.125l4.921875 0z" fill-rule="nonzero"></path><path fill="#000000" fill-opacity="0.0" d="m651.50397 120.632545l143.81097 0l0 38.645668l-143.81097 0z" fill-rule="evenodd"></path><path fill="#0000ff" d="m670.9348 147.0788l3.375 -0.328125q0.296875 1.703125 1.21875 2.5q0.9375 0.796875 2.53125 0.796875q1.671875 0 2.515625 -0.703125q0.859375 -0.71875 0.859375 -1.671875q0 -0.609375 -0.359375 -1.03125q-0.359375 -0.421875 -1.25 -0.75q-0.609375 -0.203125 -2.78125 -0.75q-2.78125 -0.6875 -3.90625 -1.6875q-1.59375 -1.421875 -1.59375 -3.46875q0 -1.3125 0.75 -2.453125q0.75 -1.140625 2.140625 -1.734375q1.40625 -0.59375 3.390625 -0.59375q3.234375 0 4.859375 1.421875q1.640625 1.40625 1.71875 3.78125l-3.46875 0.140625q-0.21875 -1.3125 -0.953125 -1.890625q-0.734375 -0.59375 -2.203125 -0.59375q-1.5 0 -2.359375 0.625q-0.546875 0.40625 -0.546875 1.0625q0 0.609375 0.515625 1.046875q0.65625 0.546875 3.1875 1.15625q2.53125 0.59375 3.734375 1.234375q1.21875 0.640625 1.90625 1.75q0.6875 1.09375 0.6875 2.734375q0 1.46875 -0.828125 2.765625q-0.8125 1.28125 -2.3125 1.921875q-1.5 0.625 -3.75 0.625q-3.25 0 -5.0 -1.5q-1.75 -1.515625 -2.078125 -4.40625zm27.710938 -3.171875l-3.25 0.578125q-0.15625 -0.96875 -0.75 -1.453125q-0.578125 -0.5 -1.5 -0.5q-1.234375 0 -1.96875 0.859375q-0.71875 0.84375 -0.71875 2.828125q0 2.21875 0.734375 3.140625q0.75 0.90625 2.0 0.90625q0.9375 0 1.53125 -0.53125q0.609375 -0.53125 0.84375 -1.828125l3.234375 0.546875q-0.5 2.21875 -1.9375 3.359375q-1.421875 1.140625 -3.828125 1.140625q-2.71875 0 -4.34375 -1.71875q-1.625 -1.734375 -1.625 -4.78125q0 -3.078125 1.625 -4.796875q1.625 -1.71875 4.40625 -1.71875q2.28125 0 3.609375 0.984375q1.34375 0.984375 1.9375 2.984375zm5.7695312 -8.421875l0 6.328125q1.59375 -1.875 3.8125 -1.875q1.140625 0 2.046875 0.421875q0.921875 0.421875 1.375 1.078125q0.46875 0.65625 0.640625 1.453125q0.171875 0.796875 0.171875 2.484375l0 7.296875l-3.296875 0l0 -6.578125q0 -1.953125 -0.1875 -2.484375q-0.1875 -0.53125 -0.671875 -0.828125q-0.46875 -0.3125 -1.171875 -0.3125q-0.828125 0 -1.46875 0.40625q-0.640625 0.390625 -0.953125 1.1875q-0.296875 0.796875 -0.296875 2.375l0 6.234375l-3.28125 0l0 -17.1875l3.28125 0zm18.597656 13.21875l3.28125 0.5625q-0.640625 1.796875 -2.015625 2.75q-1.359375 0.9375 -3.40625 0.9375q-3.25 0 -4.796875 -2.125q-1.234375 -1.703125 -1.234375 -4.28125q0 -3.09375 1.609375 -4.84375q1.625 -1.765625 4.09375 -1.765625q2.78125 0 4.375 1.84375q1.609375 1.828125 1.546875 5.609375l-8.25 0q0.03125 1.46875 0.796875 2.28125q0.765625 0.8125 1.890625 0.8125q0.78125 0 1.296875 -0.421875q0.53125 -0.421875 0.8125 -1.359375zm0.1875 -3.328125q-0.046875 -1.421875 -0.75 -2.15625q-0.703125 -0.75 -1.703125 -0.75q-1.078125 0 -1.78125 0.78125q-0.703125 0.78125 -0.6875 2.125l4.921875 0zm17.363281 7.296875l-3.0625 0l0 -1.828125q-0.765625 1.0625 -1.796875 1.59375q-1.03125 0.515625 -2.09375 0.515625q-2.140625 0 -3.671875 -1.71875q-1.53125 -1.734375 -1.53125 -4.828125q0 -3.171875 1.484375 -4.8125q1.5 -1.65625 3.765625 -1.65625q2.09375 0 3.609375 1.734375l0 -6.1875l3.296875 0l0 17.1875zm-8.796875 -6.5q0 2.0 0.5625 2.890625q0.796875 1.28125 2.21875 1.28125q1.140625 0 1.9375 -0.953125q0.796875 -0.96875 0.796875 -2.890625q0 -2.15625 -0.78125 -3.09375q-0.765625 -0.9375 -1.96875 -0.9375q-1.171875 0 -1.96875 0.9375q-0.796875 0.921875 -0.796875 2.765625zm20.238281 6.5l0 -1.859375q-0.6875 0.984375 -1.796875 1.5625q-1.109375 0.578125 -2.328125 0.578125q-1.265625 0 -2.265625 -0.546875q-0.984375 -0.5625 -1.4375 -1.546875q-0.4375 -1.0 -0.4375 -2.765625l0 -7.875l3.296875 0l0 5.71875q0 2.625 0.171875 3.21875q0.1875 0.59375 0.65625 0.9375q0.484375 0.34375 1.234375 0.34375q0.84375 0 1.5 -0.453125q0.671875 -0.46875 0.921875 -1.15625q0.25 -0.6875 0.25 -3.359375l0 -5.25l3.28125 0l0 12.453125l-3.046875 0zm6.4570312 0l0 -17.1875l3.296875 0l0 17.1875l-3.296875 0zm13.886719 -3.96875l3.28125 0.5625q-0.640625 1.796875 -2.015625 2.75q-1.359375 0.9375 -3.40625 0.9375q-3.25 0 -4.796875 -2.125q-1.234375 -1.703125 -1.234375 -4.28125q0 -3.09375 1.609375 -4.84375q1.625 -1.765625 4.09375 -1.765625q2.78125 0 4.375 1.84375q1.609375 1.828125 1.546875 5.609375l-8.25 0q0.03125 1.46875 0.796875 2.28125q0.765625 0.8125 1.890625 0.8125q0.78125 0 1.296875 -0.421875q0.53125 -0.421875 0.8125 -1.359375zm0.1875 -3.328125q-0.046875 -1.421875 -0.75 -2.15625q-0.703125 -0.75 -1.703125 -0.75q-1.078125 0 -1.78125 0.78125q-0.703125 0.78125 -0.6875 2.125l4.921875 0z" fill-rule="nonzero"></path><path fill="#000000" fill-opacity="0.0" d="m676.69293 493.30185l143.81104 0l0 38.64566l-143.81104 0z" fill-rule="evenodd"></path><path fill="#0000ff" d="m711.97345 519.02936l3.375 1.0625q-0.78125 2.8125 -2.578125 4.1875q-1.796875 1.359375 -4.5625 1.359375q-3.421875 0 -5.625 -2.34375q-2.203125 -2.34375 -2.203125 -6.390625q0 -4.296875 2.203125 -6.6562805q2.21875 -2.375 5.828125 -2.375q3.15625 0 5.125 1.859375q1.171875 1.09375 1.765625 3.1562805l-3.4375 0.828125q-0.3125 -1.34375 -1.28125 -2.1094055q-0.953125 -0.78125 -2.34375 -0.78125q-1.90625 0 -3.09375 1.3750305q-1.1875 1.375 -1.1875 4.4375q0 3.265625 1.171875 4.65625q1.171875 1.375 3.046875 1.375q1.375 0 2.375 -0.875q1.0 -0.890625 1.421875 -2.765625zm8.785156 -2.34375l-2.984375 -0.53125q0.5 -1.8125 1.71875 -2.671875q1.234375 -0.875 3.671875 -0.875q2.203125 0 3.28125 0.53125q1.078125 0.515625 1.515625 1.328125q0.4375 0.796875 0.4375 2.9375l-0.03125 3.84375q0 1.640625 0.15625 2.421875q0.15625 0.78125 0.59375 1.671875l-3.265625 0q-0.125 -0.328125 -0.3125 -0.96875q-0.078125 -0.296875 -0.125 -0.390625q-0.84375 0.8125 -1.8125 1.234375q-0.953125 0.40625 -2.03125 0.40625q-1.921875 0 -3.03125 -1.046875q-1.109375 -1.046875 -1.109375 -2.640625q0 -1.046875 0.5 -1.875q0.5 -0.828125 1.40625 -1.265625q0.921875 -0.4375 2.625 -0.765625q2.3125 -0.4375 3.203125 -0.8125l0 -0.328125q0 -0.953125 -0.46875 -1.34375q-0.46875 -0.40625 -1.765625 -0.40625q-0.890625 0 -1.390625 0.34375q-0.484375 0.34375 -0.78125 1.203125zm4.40625 2.671875q-0.640625 0.21875 -2.015625 0.515625q-1.359375 0.28125 -1.78125 0.5625q-0.640625 0.46875 -0.640625 1.171875q0 0.6875 0.515625 1.1875q0.515625 0.5 1.3125 0.5q0.890625 0 1.6875 -0.578125q0.609375 -0.453125 0.796875 -1.09375q0.125 -0.421875 0.125 -1.609375l0 -0.65625zm6.4726562 5.984375l0 -17.18753l3.296875 0l0 17.18753l-3.296875 0zm6.6679688 0l0 -17.18753l3.296875 0l0 17.18753l-3.296875 0zm6.5273438 0l0 -17.18753l3.296875 0l0 6.1875305q1.53125 -1.734375 3.609375 -1.734375q2.28125 0 3.765625 1.65625q1.484375 1.640625 1.484375 4.71875q0 3.1875 -1.515625 4.921875q-1.515625 1.71875 -3.6875 1.71875q-1.0625 0 -2.109375 -0.53125q-1.03125 -0.53125 -1.78125 -1.578125l0 1.828125l-3.0625 0zm3.28125 -6.5q0 1.9375 0.609375 2.859375q0.84375 1.3125 2.265625 1.3125q1.09375 0 1.859375 -0.921875q0.765625 -0.9375 0.765625 -2.9375q0 -2.140625 -0.78125 -3.078125q-0.765625 -0.9375 -1.96875 -0.9375q-1.1875 0 -1.96875 0.921875q-0.78125 0.90625 -0.78125 2.78125zm13.988281 -2.15625l-2.984375 -0.53125q0.5 -1.8125 1.71875 -2.671875q1.234375 -0.875 3.671875 -0.875q2.203125 0 3.28125 0.53125q1.078125 0.515625 1.515625 1.328125q0.4375 0.796875 0.4375 2.9375l-0.03125 3.84375q0 1.640625 0.15625 2.421875q0.15625 0.78125 0.59375 1.671875l-3.265625 0q-0.125 -0.328125 -0.3125 -0.96875q-0.078125 -0.296875 -0.125 -0.390625q-0.84375 0.8125 -1.8125 1.234375q-0.953125 0.40625 -2.03125 0.40625q-1.921875 0 -3.03125 -1.046875q-1.109375 -1.046875 -1.109375 -2.640625q0 -1.046875 0.5 -1.875q0.5 -0.828125 1.40625 -1.265625q0.921875 -0.4375 2.625 -0.765625q2.3125 -0.4375 3.203125 -0.8125l0 -0.328125q0 -0.953125 -0.46875 -1.34375q-0.46875 -0.40625 -1.765625 -0.40625q-0.890625 0 -1.390625 0.34375q-0.484375 0.34375 -0.78125 1.203125zm4.40625 2.671875q-0.640625 0.21875 -2.015625 0.515625q-1.359375 0.28125 -1.78125 0.5625q-0.640625 0.46875 -0.640625 1.171875q0 0.6875 0.515625 1.1875q0.515625 0.5 1.3125 0.5q0.890625 0 1.6875 -0.578125q0.609375 -0.453125 0.796875 -1.09375q0.125 -0.421875 0.125 -1.609375l0 -0.65625zm17.332031 -2.78125l-3.25 0.578125q-0.15625 -0.96875 -0.75 -1.453125q-0.578125 -0.5 -1.5 -0.5q-1.234375 0 -1.96875 0.859375q-0.71875 0.84375 -0.71875 2.828125q0 2.21875 0.734375 3.140625q0.75 0.90625 2.0 0.90625q0.9375 0 1.53125 -0.53125q0.609375 -0.53125 0.84375 -1.828125l3.234375 0.546875q-0.5 2.21875 -1.9375 3.359375q-1.421875 1.140625 -3.828125 1.140625q-2.71875 0 -4.34375 -1.71875q-1.625 -1.734375 -1.625 -4.78125q0 -3.078125 1.625 -4.796875q1.625 -1.71875 4.40625 -1.71875q2.28125 0 3.609375 0.984375q1.34375 0.984375 1.9375 2.984375zm2.3789062 8.765625l0 -17.18753l3.296875 0l0 9.1250305l3.84375 -4.390625l4.0625 0l-4.25 4.546875l4.546875 7.90625l-3.546875 0l-3.125 -5.59375l-1.53125 1.609375l0 3.984375l-3.296875 0z" fill-rule="nonzero"></path><path fill="#000000" fill-opacity="0.0" d="m242.34645 493.30185l143.81102 0l0 38.64566l-143.81102 0z" fill-rule="evenodd"></path><path fill="#0000ff" d="m277.62695 519.02936l3.375 1.0625q-0.78125 2.8125 -2.578125 4.1875q-1.796875 1.359375 -4.5625 1.359375q-3.421875 0 -5.625 -2.34375q-2.203125 -2.34375 -2.203125 -6.390625q0 -4.296875 2.203125 -6.6562805q2.21875 -2.375 5.828125 -2.375q3.15625 0 5.125 1.859375q1.171875 1.09375 1.765625 3.1562805l-3.4375 0.828125q-0.3125 -1.34375 -1.28125 -2.1094055q-0.953125 -0.78125 -2.34375 -0.78125q-1.90625 0 -3.09375 1.3750305q-1.1875 1.375 -1.1875 4.4375q0 3.265625 1.171875 4.65625q1.171875 1.375 3.046875 1.375q1.375 0 2.375 -0.875q1.0 -0.890625 1.421875 -2.765625zm8.785156 -2.34375l-2.984375 -0.53125q0.5 -1.8125 1.71875 -2.671875q1.234375 -0.875 3.671875 -0.875q2.203125 0 3.28125 0.53125q1.078125 0.515625 1.515625 1.328125q0.4375 0.796875 0.4375 2.9375l-0.03125 3.84375q0 1.640625 0.15625 2.421875q0.15625 0.78125 0.59375 1.671875l-3.265625 0q-0.125 -0.328125 -0.3125 -0.96875q-0.078125 -0.296875 -0.125 -0.390625q-0.84375 0.8125 -1.8125 1.234375q-0.953125 0.40625 -2.03125 0.40625q-1.921875 0 -3.03125 -1.046875q-1.109375 -1.046875 -1.109375 -2.640625q0 -1.046875 0.5 -1.875q0.5 -0.828125 1.40625 -1.265625q0.921875 -0.4375 2.625 -0.765625q2.3125 -0.4375 3.203125 -0.8125l0 -0.328125q0 -0.953125 -0.46875 -1.34375q-0.46875 -0.40625 -1.765625 -0.40625q-0.890625 0 -1.390625 0.34375q-0.484375 0.34375 -0.78125 1.203125zm4.40625 2.671875q-0.640625 0.21875 -2.015625 0.515625q-1.359375 0.28125 -1.78125 0.5625q-0.640625 0.46875 -0.640625 1.171875q0 0.6875 0.515625 1.1875q0.515625 0.5 1.3125 0.5q0.890625 0 1.6875 -0.578125q0.609375 -0.453125 0.796875 -1.09375q0.125 -0.421875 0.125 -1.609375l0 -0.65625zm6.4726562 5.984375l0 -17.18753l3.296875 0l0 17.18753l-3.296875 0zm6.6679688 0l0 -17.18753l3.296875 0l0 17.18753l-3.296875 0zm6.5273438 0l0 -17.18753l3.296875 0l0 6.1875305q1.53125 -1.734375 3.609375 -1.734375q2.28125 0 3.765625 1.65625q1.484375 1.640625 1.484375 4.71875q0 3.1875 -1.515625 4.921875q-1.515625 1.71875 -3.6875 1.71875q-1.0625 0 -2.109375 -0.53125q-1.03125 -0.53125 -1.78125 -1.578125l0 1.828125l-3.0625 0zm3.28125 -6.5q0 1.9375 0.609375 2.859375q0.84375 1.3125 2.265625 1.3125q1.09375 0 1.859375 -0.921875q0.765625 -0.9375 0.765625 -2.9375q0 -2.140625 -0.78125 -3.078125q-0.765625 -0.9375 -1.96875 -0.9375q-1.1875 0 -1.96875 0.921875q-0.78125 0.90625 -0.78125 2.78125zm13.988281 -2.15625l-2.984375 -0.53125q0.5 -1.8125 1.71875 -2.671875q1.234375 -0.875 3.671875 -0.875q2.203125 0 3.28125 0.53125q1.078125 0.515625 1.515625 1.328125q0.4375 0.796875 0.4375 2.9375l-0.03125 3.84375q0 1.640625 0.15625 2.421875q0.15625 0.78125 0.59375 1.671875l-3.265625 0q-0.125 -0.328125 -0.3125 -0.96875q-0.078125 -0.296875 -0.125 -0.390625q-0.84375 0.8125 -1.8125 1.234375q-0.953125 0.40625 -2.03125 0.40625q-1.921875 0 -3.03125 -1.046875q-1.109375 -1.046875 -1.109375 -2.640625q0 -1.046875 0.5 -1.875q0.5 -0.828125 1.40625 -1.265625q0.921875 -0.4375 2.625 -0.765625q2.3125 -0.4375 3.203125 -0.8125l0 -0.328125q0 -0.953125 -0.46875 -1.34375q-0.46875 -0.40625 -1.765625 -0.40625q-0.890625 0 -1.390625 0.34375q-0.484375 0.34375 -0.78125 1.203125zm4.40625 2.671875q-0.640625 0.21875 -2.015625 0.515625q-1.359375 0.28125 -1.78125 0.5625q-0.640625 0.46875 -0.640625 1.171875q0 0.6875 0.515625 1.1875q0.515625 0.5 1.3125 0.5q0.890625 0 1.6875 -0.578125q0.609375 -0.453125 0.796875 -1.09375q0.125 -0.421875 0.125 -1.609375l0 -0.65625zm17.332031 -2.78125l-3.25 0.578125q-0.15625 -0.96875 -0.75 -1.453125q-0.578125 -0.5 -1.5 -0.5q-1.234375 0 -1.96875 0.859375q-0.71875 0.84375 -0.71875 2.828125q0 2.21875 0.734375 3.140625q0.75 0.90625 2.0 0.90625q0.9375 0 1.53125 -0.53125q0.609375 -0.53125 0.84375 -1.828125l3.234375 0.546875q-0.5 2.21875 -1.9375 3.359375q-1.421875 1.140625 -3.828125 1.140625q-2.71875 0 -4.34375 -1.71875q-1.625 -1.734375 -1.625 -4.78125q0 -3.078125 1.625 -4.796875q1.625 -1.71875 4.40625 -1.71875q2.28125 0 3.609375 0.984375q1.34375 0.984375 1.9375 2.984375zm2.3789062 8.765625l0 -17.18753l3.296875 0l0 9.1250305l3.84375 -4.390625l4.0625 0l-4.25 4.546875l4.546875 7.90625l-3.546875 0l-3.125 -5.59375l-1.53125 1.609375l0 3.984375l-3.296875 0z" fill-rule="nonzero"></path><path fill="#000000" fill-opacity="0.0" d="m40.09974 225.27296l143.81104 0l0 38.645676l-143.81104 0z" fill-rule="evenodd"></path><path fill="#000000" d="m66.427124 257.31296l0 -17.187485l7.296875 0q2.75 0 4.0 0.46875q1.25 0.46875 2.0 1.65625q0.75 1.171875 0.75 2.703125q0 1.921875 -1.140625 3.1875q-1.140625 1.265625 -3.390625 1.59375q1.125 0.65625 1.84375 1.4375q0.734375 0.78125 1.984375 2.78125l2.09375 3.3593597l-4.140625 0l-2.515625 -3.7343597q-1.328125 -2.015625 -1.828125 -2.53125q-0.484375 -0.515625 -1.046875 -0.703125q-0.546875 -0.203125 -1.734375 -0.203125l-0.703125 0l0 7.1718597l-3.46875 0zm3.46875 -9.92186l2.5625 0q2.5 0 3.109375 -0.203125q0.625 -0.21875 0.96875 -0.734375q0.359375 -0.515625 0.359375 -1.28125q0 -0.875 -0.46875 -1.40625q-0.453125 -0.53125 -1.296875 -0.671875q-0.421875 -0.0625 -2.53125 -0.0625l-2.703125 0l0 4.359375zm21.035156 5.953125l3.28125 0.5625q-0.640625 1.796875 -2.015625 2.7499847q-1.359375 0.9375 -3.40625 0.9375q-3.25 0 -4.796875 -2.1249847q-1.234375 -1.703125 -1.234375 -4.28125q0 -3.09375 1.609375 -4.84375q1.625 -1.765625 4.09375 -1.765625q2.78125 0 4.375 1.84375q1.609375 1.828125 1.546875 5.609375l-8.25 0q0.03125 1.46875 0.796875 2.28125q0.765625 0.8125 1.890625 0.8125q0.78125 0 1.296875 -0.421875q0.53125 -0.421875 0.8125 -1.359375zm0.1875 -3.328125q-0.046875 -1.421875 -0.75 -2.15625q-0.703125 -0.75 -1.703125 -0.75q-1.078125 0 -1.78125 0.78125q-0.703125 0.78125 -0.6875 2.125l4.921875 0zm14.082031 12.031235l0 -6.2656097q-0.640625 0.84373474 -1.609375 1.3281097q-0.953125 0.484375 -2.078125 0.484375q-2.109375 0 -3.484375 -1.59375q-1.625 -1.8593597 -1.625 -5.0468597q0 -3.0 1.515625 -4.6875q1.53125 -1.6875 3.78125 -1.6875q1.234375 0 2.140625 0.53125q0.90625 0.53125 1.609375 1.59375l0 -1.84375l3.046875 0l0 17.187485l-3.296875 0zm0.109375 -11.10936q0 -1.90625 -0.78125 -2.84375q-0.78125 -0.9375 -1.953125 -0.9375q-1.203125 0 -2.0 0.953125q-0.796875 0.953125 -0.796875 3.015625q0 2.046875 0.765625 2.953125q0.78125 0.90625 1.90625 0.90625q1.140625 0 2.0 -1.015625q0.859375 -1.015625 0.859375 -3.03125zm14.613281 6.3749847l0 -1.8593597q-0.6875 0.98435974 -1.796875 1.5624847q-1.109375 0.578125 -2.328125 0.578125q-1.265625 0 -2.265625 -0.546875q-0.984375 -0.5625 -1.4375 -1.5468597q-0.4375 -1.0 -0.4375 -2.765625l0 -7.875l3.296875 0l0 5.71875q0 2.625 0.171875 3.21875q0.1875 0.59375 0.65625 0.9375q0.484375 0.34375 1.234375 0.34375q0.84375 0 1.5 -0.453125q0.671875 -0.46875 0.921875 -1.15625q0.25 -0.6875 0.25 -3.359375l0 -5.25l3.28125 0l0 12.45311l-3.046875 0zm13.675781 -3.9687347l3.28125 0.5625q-0.640625 1.796875 -2.015625 2.7499847q-1.359375 0.9375 -3.40625 0.9375q-3.25 0 -4.796875 -2.1249847q-1.234375 -1.703125 -1.234375 -4.28125q0 -3.09375 1.609375 -4.84375q1.625 -1.765625 4.09375 -1.765625q2.78125 0 4.375 1.84375q1.609375 1.828125 1.546875 5.609375l-8.25 0q0.03125 1.46875 0.796875 2.28125q0.765625 0.8125 1.890625 0.8125q0.78125 0 1.296875 -0.421875q0.53125 -0.421875 0.8125 -1.359375zm0.1875 -3.328125q-0.046875 -1.421875 -0.75 -2.15625q-0.703125 -0.75 -1.703125 -0.75q-1.078125 0 -1.78125 0.78125q-0.703125 0.78125 -0.6875 2.125l4.921875 0zm4.7851562 3.75l3.3125 -0.515625q0.203125 0.96875 0.84375 1.46875q0.65625 0.5 1.8125 0.5q1.28125 0 1.921875 -0.46875q0.4375 -0.328125 0.4375 -0.890625q0 -0.375 -0.234375 -0.609375q-0.25 -0.234375 -1.109375 -0.4375q-3.984375 -0.875 -5.046875 -1.609375q-1.484375 -1.0 -1.484375 -2.796875q0 -1.625 1.28125 -2.71875q1.28125 -1.109375 3.96875 -1.109375q2.546875 0 3.78125 0.84375q1.25 0.828125 1.71875 2.453125l-3.109375 0.578125q-0.1875 -0.734375 -0.75 -1.109375q-0.5625 -0.390625 -1.59375 -0.390625q-1.296875 0 -1.859375 0.359375q-0.375 0.265625 -0.375 0.671875q0 0.34375 0.328125 0.59375q0.453125 0.328125 3.078125 0.9375q2.625 0.59375 3.671875 1.453125q1.03125 0.875 1.03125 2.453125q0 1.703125 -1.4375 2.9374847q-1.421875 1.234375 -4.21875 1.234375q-2.546875 0 -4.03125 -1.03125q-1.484375 -1.0312347 -1.9375 -2.7968597zm20.222656 -8.90625l0 2.625l-2.25 0l0 5.015625q0 1.53125 0.0625 1.78125q0.0625 0.25 0.28125 0.421875q0.234375 0.15625 0.5625 0.15625q0.453125 0 1.328125 -0.3125l0.28125 2.5468597q-1.15625 0.5 -2.609375 0.5q-0.890625 0 -1.609375 -0.296875q-0.703125 -0.296875 -1.046875 -0.765625q-0.328125 -0.484375 -0.453125 -1.2968597q-0.109375 -0.578125 -0.109375 -2.3125l0 -5.4375l-1.515625 0l0 -2.625l1.515625 0l0 -2.46875l3.3125 -1.921875l0 4.390625l2.25 0z" fill-rule="nonzero"></path><path fill="#000000" fill-opacity="0.0" d="m40.818897 353.73752l143.81104 0l0 38.64569l-143.81104 0z" fill-rule="evenodd"></path><path fill="#000000" d="m57.13847 385.77753l0 -17.1875l7.296879 0q2.75 0 4.0 0.46875q1.25 0.46875 2.0 1.65625q0.75 1.171875 0.75 2.703125q0 1.921875 -1.140625 3.1875q-1.140625 1.265625 -3.390625 1.59375q1.125 0.65625 1.84375 1.4375q0.734375 0.78125 1.984375 2.78125l2.09375 3.359375l-4.140625 0l-2.515625 -3.734375q-1.328125 -2.015625 -1.828125 -2.53125q-0.4843788 -0.515625 -1.0468788 -0.703125q-0.546875 -0.203125 -1.734375 -0.203125l-0.703125 0l0 7.171875l-3.46875 0zm3.46875 -9.921875l2.5625 0q2.5000038 0 3.1093788 -0.203125q0.625 -0.21875 0.96875 -0.734375q0.359375 -0.515625 0.359375 -1.28125q0 -0.875 -0.46875 -1.40625q-0.453125 -0.53125 -1.296875 -0.671875q-0.421875 -0.0625 -2.5312538 -0.0625l-2.703125 0l0 4.359375zm21.03516 5.953125l3.28125 0.5625q-0.640625 1.796875 -2.015625 2.75q-1.359375 0.9375 -3.40625 0.9375q-3.25 0 -4.796875 -2.125q-1.234375 -1.703125 -1.234375 -4.28125q0 -3.09375 1.609375 -4.84375q1.625 -1.765625 4.09375 -1.765625q2.78125 0 4.375 1.84375q1.609375 1.828125 1.546875 5.609375l-8.25 0q0.03125 1.46875 0.796875 2.28125q0.765625 0.8125 1.890625 0.8125q0.78125 0 1.296875 -0.421875q0.53125 -0.421875 0.8125 -1.359375zm0.1875 -3.328125q-0.046875 -1.421875 -0.75 -2.15625q-0.703125 -0.75 -1.703125 -0.75q-1.078125 0 -1.78125 0.78125q-0.703125 0.78125 -0.6875 2.125l4.921875 0zm4.7851562 3.75l3.3125 -0.515625q0.203125 0.96875 0.84375 1.46875q0.65625 0.5 1.8125 0.5q1.28125 0 1.921875 -0.46875q0.4375 -0.328125 0.4375 -0.890625q0 -0.375 -0.234375 -0.609375q-0.25 -0.234375 -1.109375 -0.4375q-3.984375 -0.875 -5.046875 -1.609375q-1.484375 -1.0 -1.484375 -2.796875q0 -1.625 1.28125 -2.71875q1.28125 -1.109375 3.96875 -1.109375q2.546875 0 3.78125 0.84375q1.25 0.828125 1.71875 2.453125l-3.109375 0.578125q-0.1875 -0.734375 -0.75 -1.109375q-0.5625 -0.390625 -1.59375 -0.390625q-1.296875 0 -1.859375 0.359375q-0.375 0.265625 -0.375 0.671875q0 0.34375 0.328125 0.59375q0.453125 0.328125 3.078125 0.9375q2.625 0.59375 3.671875 1.453125q1.03125 0.875 1.03125 2.453125q0 1.703125 -1.4375 2.9375q-1.421875 1.234375 -4.21875 1.234375q-2.546875 0 -4.03125 -1.03125q-1.484375 -1.03125 -1.9375 -2.796875zm14.410156 -8.90625l3.078125 0l0 1.828125q0.59375 -0.9375 1.609375 -1.515625q1.03125 -0.59375 2.265625 -0.59375q2.171875 0 3.671875 1.703125q1.515625 1.703125 1.515625 4.734375q0 3.125 -1.53125 4.859375q-1.515625 1.71875 -3.671875 1.71875q-1.03125 0 -1.875 -0.40625q-0.84375 -0.421875 -1.765625 -1.40625l0 6.265625l-3.296875 0l0 -17.1875zm3.265625 6.015625q0 2.09375 0.828125 3.109375q0.828125 1.0 2.03125 1.0q1.140625 0 1.90625 -0.921875q0.765625 -0.921875 0.765625 -3.015625q0 -1.96875 -0.796875 -2.90625q-0.78125 -0.953125 -1.9375 -0.953125q-1.203125 0 -2.0 0.9375q-0.796875 0.921875 -0.796875 2.75zm10.738281 0.03125q0 -1.640625 0.796875 -3.171875q0.8125 -1.53125 2.296875 -2.34375q1.484375 -0.8125 3.3125 -0.8125q2.828125 0 4.625 1.84375q1.8125 1.828125 1.8125 4.625q0 2.828125 -1.828125 4.6875q-1.828125 1.859375 -4.59375 1.859375q-1.703125 0 -3.265625 -0.765625q-1.546875 -0.78125 -2.359375 -2.265625q-0.796875 -1.5 -0.796875 -3.65625zm3.375 0.1875q0 1.84375 0.875 2.828125q0.875 0.984375 2.171875 0.984375q1.28125 0 2.15625 -0.984375q0.875 -0.984375 0.875 -2.859375q0 -1.828125 -0.875 -2.8125q-0.875 -0.984375 -2.15625 -0.984375q-1.296875 0 -2.171875 0.984375q-0.875 0.984375 -0.875 2.84375zm23.363281 6.21875l-3.296875 0l0 -6.359375q0 -2.015625 -0.21875 -2.59375q-0.203125 -0.59375 -0.6875 -0.921875q-0.46875 -0.328125 -1.125 -0.328125q-0.859375 0 -1.546875 0.46875q-0.671875 0.46875 -0.921875 1.25q-0.25 0.765625 -0.25 2.84375l0 5.640625l-3.296875 0l0 -12.453125l3.0625 0l0 1.828125q1.625 -2.109375 4.09375 -2.109375q1.09375 0 1.984375 0.40625q0.90625 0.390625 1.375 1.0q0.46875 0.609375 0.640625 1.390625q0.1875 0.765625 0.1875 2.203125l0 7.734375zm2.1757812 -3.546875l3.3125 -0.515625q0.203125 0.96875 0.84375 1.46875q0.65625 0.5 1.8125 0.5q1.28125 0 1.921875 -0.46875q0.4375 -0.328125 0.4375 -0.890625q0 -0.375 -0.234375 -0.609375q-0.25 -0.234375 -1.109375 -0.4375q-3.984375 -0.875 -5.046875 -1.609375q-1.484375 -1.0 -1.484375 -2.796875q0 -1.625 1.28125 -2.71875q1.28125 -1.109375 3.96875 -1.109375q2.546875 0 3.78125 0.84375q1.25 0.828125 1.71875 2.453125l-3.109375 0.578125q-0.1875 -0.734375 -0.75 -1.109375q-0.5625 -0.390625 -1.59375 -0.390625q-1.296875 0 -1.859375 0.359375q-0.375 0.265625 -0.375 0.671875q0 0.34375 0.328125 0.59375q0.453125 0.328125 3.078125 0.9375q2.625 0.59375 3.671875 1.453125q1.03125 0.875 1.03125 2.453125q0 1.703125 -1.4375 2.9375q-1.421875 1.234375 -4.21875 1.234375q-2.546875 0 -4.03125 -1.03125q-1.484375 -1.03125 -1.9375 -2.796875zm21.722656 -0.421875l3.28125 0.5625q-0.640625 1.796875 -2.015625 2.75q-1.359375 0.9375 -3.40625 0.9375q-3.25 0 -4.796875 -2.125q-1.234375 -1.703125 -1.234375 -4.28125q0 -3.09375 1.609375 -4.84375q1.625 -1.765625 4.09375 -1.765625q2.78125 0 4.375 1.84375q1.609375 1.828125 1.546875 5.609375l-8.25 0q0.03125 1.46875 0.796875 2.28125q0.765625 0.8125 1.890625 0.8125q0.78125 0 1.296875 -0.421875q0.53125 -0.421875 0.8125 -1.359375zm0.1875 -3.328125q-0.046875 -1.421875 -0.75 -2.15625q-0.703125 -0.75 -1.703125 -0.75q-1.078125 0 -1.78125 0.78125q-0.703125 0.78125 -0.6875 2.125l4.921875 0z" fill-rule="nonzero"></path></g></svg> 